<?xml version="1.0" encoding="utf-8"?>
<!-- Svg Vector Icons : http://www.onlinewebfonts.com/icon -->
<!DOCTYPE svg PUBLIC "-//W3C//DTD SVG 1.1//EN" "http://www.w3.org/Graphics/SVG/1.1/DTD/svg11.dtd">
<svg version="1.1" xmlns="http://www.w3.org/2000/svg" xmlns:xlink="http://www.w3.org/1999/xlink" x="0px" y="0px" viewBox="0 0 1000 1000" enable-background="new 0 0 1000 1000" xml:space="preserve">
<metadata> Svg Vector Icons : http://www.onlinewebfonts.com/icon </metadata>
<g><g transform="translate(0.000000,512.000000) scale(0.100000,-0.100000)"><path d="M4530.1,5007.9C3375.4,4889,2341.7,4400,1530.4,3588.6C751.6,2809.9,287.5,1860.5,124.4,723.1c-32.6-226.3-32.6-982,0-1208.3c163-1137.4,629.1-2086.8,1405.9-2865.5c776.8-776.8,1730-1244.8,2865.5-1405.9c226.3-32.6,982-32.6,1208.3,0c939.8,134.3,1779.9,491,2474.2,1053c987.8,797.9,1611.1,1916.1,1797.2,3218.4c32.6,226.3,32.6,982,0,1208.3c-161.1,1135.5-629.1,2088.7-1405.9,2865.5c-759.5,759.5-1687.8,1223.7-2779.2,1392.5C5448.8,5017.5,4775.6,5034.8,4530.1,5007.9z M5101.6,2412.9c105.5-38.4,197.6-117,257-216.7c42.2-74.8,53.7-118.9,59.5-257l7.7-168.8l771-5.8l769.1-5.8l65.2-46c92.1-65.2,136.2-174.5,136.2-341.4v-140H5395.1c-1712.8,0-1776.1-1.9-1895-38.4c-155.4-47.9-329.9-159.2-427.7-274.3c-51.8-61.4-255.1-450.7-632.9-1217.9l-556.2-1127.8l-5.8,1469.2l-3.8,1467.3l44.1,84.4c30.7,59.5,69.1,99.7,126.6,130.4c84.4,44.1,88.2,44.1,830.5,44.1H3619v130.4c0,178.4,42.2,293.5,147.7,397c130.4,132.3,180.3,141.9,763.4,141.9C4898.3,2437.8,5047.9,2432.1,5101.6,2412.9z M8542.5,840.1c38.4-44.1,46-71,38.4-124.7c-13.4-101.7-1287-2662.2-1361.8-2740.8c-34.5-36.5-103.6-88.2-157.3-115.1l-95.9-51.8l-2416.7-5.8c-1793.3-3.8-2430.1,1.9-2470.4,17.3c-67.1,28.8-109.3,88.2-109.3,151.5c0,72.9,1292.7,2679.4,1367.5,2758.1c61.4,63.3,170.7,130.4,262.8,159.2c26.9,7.7,1139.3,13.4,2470.4,11.5l2424.4-3.8L8542.5,840.1z"/><path d="M3993,2063.8c-40.3-44.1-47.9-71-47.9-172.6v-122.7h575.4h575.4v124.7c0,109.3-5.7,132.3-47.9,172.6l-46,47.9h-481.4h-481.4L3993,2063.8z"/></g></g>
</svg>