<?xml version="1.0" encoding="utf-8"?>
<!-- Svg Vector Icons : http://www.onlinewebfonts.com/icon -->
<!DOCTYPE svg PUBLIC "-//W3C//DTD SVG 1.1//EN" "http://www.w3.org/Graphics/SVG/1.1/DTD/svg11.dtd">
<svg version="1.1" xmlns="http://www.w3.org/2000/svg" xmlns:xlink="http://www.w3.org/1999/xlink" x="0px" y="0px" viewBox="0 0 1000 1000" enable-background="new 0 0 1000 1000" xml:space="preserve">
<metadata> Svg Vector Icons : http://www.onlinewebfonts.com/icon </metadata>
<g><g transform="translate(0.000000,512.000000) scale(0.100000,-0.100000)"><path d="M4530.1,5007.9C3375.4,4889,2341.7,4400,1530.4,3588.6C751.6,2809.9,287.5,1860.5,124.4,723.1c-32.6-226.3-32.6-982,0-1208.3c163-1137.4,629.1-2086.8,1405.9-2865.5c776.8-776.8,1730-1244.8,2865.5-1405.9c226.3-32.6,982-32.6,1208.3,0c939.8,134.3,1779.9,491,2474.2,1053c987.8,797.9,1611.1,1916.1,1797.2,3218.4c32.6,226.3,32.6,982,0,1208.3c-161.1,1135.5-629.1,2088.7-1405.9,2865.5c-759.5,759.5-1687.8,1223.7-2779.2,1392.5C5448.8,5017.5,4775.6,5034.8,4530.1,5007.9z M7142.4,2957.6c588.8-78.6,1070.2-462.2,1269.7-1010.8c314.5-857.3-189.9-1806.7-1076-2029.2L7209.5-115l9.6-184.1c5.8-103.6,13.4-188,17.2-191.8c1.9-3.8,46-17.3,97.8-30.7l92.1-23l3.8-991.6l3.8-989.7l-71-59.4c-103.6-86.3-258.9-138.1-408.5-140c-105.5,0-149.6,11.5-249.3,59.5c-67.1,32.6-141.9,76.7-165,97.8l-44.1,36.4v995.4v995.4l105.5,34.5l105.5,32.6v180.3v182.2l-51.8,11.5c-134.3,28.8-364.4,117-471.8,182.2l-118.9,71l-9.6-1248.6l-9.6-1250.5l-53.7-90.2c-59.5-101.6-151.5-180.3-257-218.6c-59.5-21.1-410.4-25-1818.3-25c-1714.7-1.9-1747.3,0-1831.7,38.4c-115.1,51.8-188,122.8-241.7,237.9l-46,95.9v1743.4c0,1311.9,5.7,1762.6,23,1822.1c30.7,105.5,189.9,264.7,295.4,295.4c59.4,17.3,481.4,23,1691.7,23h1611.1l23,128.5c111.2,638.7,667.5,1168.1,1313.8,1250.5C6944.9,2978.7,6973.6,2978.7,7142.4,2957.6z"/><path d="M6668.7,2572.1c-230.2-59.5-374-141.9-546.6-314.6c-176.5-176.5-260.8-320.3-316.5-539C5611.8,964.8,6166.1,236,6937.2,228.3c222.5-1.9,345.2,24.9,554.3,124.7c297.3,141.9,542.8,443.1,625.3,772.9c36.4,145.8,36.4,429.6,0,575.4c-109.3,433.5-477.6,792.1-903.4,882.3C7035,2622,6841.3,2618.1,6668.7,2572.1z"/><path d="M2583.3,502.6V349.1h1333h1333v153.4V656h-1333h-1333V502.6z"/><path d="M2583.3-552.3v-153.4h1333h1333v153.4v153.4h-1333h-1333V-552.3z"/><path d="M2583.3-1607.2v-153.4h1333h1333v153.4v153.4h-1333h-1333V-1607.2z"/></g></g>
</svg>