<?xml version="1.0" encoding="utf-8"?>
<!-- Svg Vector Icons : http://www.onlinewebfonts.com/icon -->
<!DOCTYPE svg PUBLIC "-//W3C//DTD SVG 1.1//EN" "http://www.w3.org/Graphics/SVG/1.1/DTD/svg11.dtd">
<svg version="1.1" xmlns="http://www.w3.org/2000/svg" xmlns:xlink="http://www.w3.org/1999/xlink" x="0px" y="0px" viewBox="0 0 1000 1000" enable-background="new 0 0 1000 1000" xml:space="preserve">
<metadata> Svg Vector Icons : http://www.onlinewebfonts.com/icon </metadata>
<g><g transform="translate(0.000000,512.000000) scale(0.100000,-0.100000)"><path d="M4530.1,5007.9C3375.4,4889,2341.7,4400,1530.4,3588.6C751.6,2809.9,287.5,1860.5,124.4,723.1c-32.6-226.3-32.6-982,0-1208.3c163-1137.4,629.1-2086.8,1405.9-2865.5c776.8-776.8,1730-1244.8,2865.5-1405.9c226.3-32.6,982-32.6,1208.3,0c939.8,134.3,1779.9,491,2474.2,1053c987.8,797.9,1611.1,1916.1,1797.2,3218.4c32.6,226.3,32.6,982,0,1208.3c-161.1,1135.5-629.1,2088.7-1405.9,2865.5c-759.5,759.5-1687.8,1223.7-2779.2,1392.5C5448.8,5017.5,4775.6,5034.8,4530.1,5007.9z M6879.6,2593.2v-882.3h-147.7c-82.5,0-168.8-5.8-191.8-11.5l-44.1-11.5v702v702h-2129h-2129V761.5v-2330.4h1390.5h1390.5v-191.8v-191.8H3436.8H1854.5v2714v2714h2512.6h2512.6V2593.2z M5959,2017.8V1826H4376.6H2794.3v191.8v191.8h1582.3H5959V2017.8z M6965.9,1336.9c504.4-107.4,859.3-567.7,828.6-1074.1C7740.8-619.4,6699.3-1041.4,6053-441.1c-186,170.7-289.6,370.2-324.2,623.3c-74.8,523.6,287.7,1041.5,811.3,1154.6C6697.4,1371.4,6802.9,1371.4,6965.9,1336.9z M5517.9,953.3c0-5.8-15.3-42.2-36.4-82.5c-34.5-71-65.2-159.2-86.3-257l-11.5-53.7H4088.9H2794.3v201.4v201.4h1361.8C4906,962.9,5517.9,959.1,5517.9,953.3z M5571.6-383.5c30.7-55.6,72.9-122.8,94-147.7l38.4-47.9l-113.2-53.7l-115.1-53.7H4135H2794.3v201.4v201.4h1359.9H5514L5571.6-383.5z M7834.8-964.7c122.8-67.1,184.1-136.2,251.3-278.1l49.9-105.5v-939.8v-939.8l-1377.1-5.7l-1377.1-3.8l5.8,953.2l5.8,955.2l53.7,109.3c30.7,61.4,92.1,143.8,140,186c155.4,136.2,134.3,134.3,1196.8,130.4l949.4-3.8L7834.8-964.7z"/></g></g>
</svg>